solid OpenSCAD_Model
  facet normal 1 -0 0
    outer loop
      vertex 47 19.468 14
      vertex 47 47 -14
      vertex 47 47 14
    endloop
  endfacet
  facet normal 1 0 0
    outer loop
      vertex 47 47 -14
      vertex 47 19.468 14
      vertex 47 19.468 -14
    endloop
  endfacet
  facet normal 1 -0 0
    outer loop
      vertex 47 -47 14
      vertex 47 -19.468 -14
      vertex 47 -19.468 14
    endloop
  endfacet
  facet normal 1 0 0
    outer loop
      vertex 47 -19.468 -14
      vertex 47 -47 14
      vertex 47 -47 -14
    endloop
  endfacet
  facet normal 0 0 1
    outer loop
      vertex -45 -18.6396 14
      vertex -47 -19.468 14
      vertex -45 -45 14
    endloop
  endfacet
  facet normal 0 0 1
    outer loop
      vertex -63.6396 0 14
      vertex -47 -19.468 14
      vertex -45 -18.6396 14
    endloop
  endfacet
  facet normal 0 0 1
    outer loop
      vertex -47 -19.468 14
      vertex -63.6396 0 14
      vertex -66.468 0 14
    endloop
  endfacet
  facet normal 0 0 1
    outer loop
      vertex 47 47 14
      vertex 45 45 14
      vertex 47 19.468 14
    endloop
  endfacet
  facet normal -0 0 1
    outer loop
      vertex 19.468 47 14
      vertex 45 45 14
      vertex 47 47 14
    endloop
  endfacet
  facet normal 0 0 1
    outer loop
      vertex 19.468 47 14
      vertex 18.6396 45 14
      vertex 45 45 14
    endloop
  endfacet
  facet normal -0 0 1
    outer loop
      vertex 0 63.6396 14
      vertex 19.468 47 14
      vertex 0 66.468 14
    endloop
  endfacet
  facet normal 0 0 1
    outer loop
      vertex 19.468 47 14
      vertex 0 63.6396 14
      vertex 18.6396 45 14
    endloop
  endfacet
  facet normal 0 0 1
    outer loop
      vertex -19.468 47 14
      vertex 0 63.6396 14
      vertex 0 66.468 14
    endloop
  endfacet
  facet normal 0 0 1
    outer loop
      vertex 0 63.6396 14
      vertex -19.468 47 14
      vertex -18.6396 45 14
    endloop
  endfacet
  facet normal 0 0 1
    outer loop
      vertex -19.468 47 14
      vertex -45 45 14
      vertex -18.6396 45 14
    endloop
  endfacet
  facet normal -0 0 1
    outer loop
      vertex -47 47 14
      vertex -45 45 14
      vertex -19.468 47 14
    endloop
  endfacet
  facet normal 0 0 1
    outer loop
      vertex -47 19.468 14
      vertex -45 45 14
      vertex -47 47 14
    endloop
  endfacet
  facet normal 0 0 1
    outer loop
      vertex -45 45 14
      vertex -47 19.468 14
      vertex -45 18.6396 14
    endloop
  endfacet
  facet normal 0 0 1
    outer loop
      vertex -47 19.468 14
      vertex -63.6396 0 14
      vertex -45 18.6396 14
    endloop
  endfacet
  facet normal 0 -0 1
    outer loop
      vertex -63.6396 0 14
      vertex -47 19.468 14
      vertex -66.468 0 14
    endloop
  endfacet
  facet normal 0 0 1
    outer loop
      vertex 47 19.468 14
      vertex 63.6396 0 14
      vertex 66.468 0 14
    endloop
  endfacet
  facet normal 0 0 1
    outer loop
      vertex 47 19.468 14
      vertex 45 18.6396 14
      vertex 63.6396 0 14
    endloop
  endfacet
  facet normal 0 0 1
    outer loop
      vertex 45 18.6396 14
      vertex 47 19.468 14
      vertex 45 45 14
    endloop
  endfacet
  facet normal -0 0 1
    outer loop
      vertex 63.6396 0 14
      vertex 47 -19.468 14
      vertex 66.468 0 14
    endloop
  endfacet
  facet normal -0 0 1
    outer loop
      vertex 45 -18.6396 14
      vertex 47 -19.468 14
      vertex 63.6396 0 14
    endloop
  endfacet
  facet normal 0 0 1
    outer loop
      vertex 45 -45 14
      vertex 47 -19.468 14
      vertex 45 -18.6396 14
    endloop
  endfacet
  facet normal 0 0 1
    outer loop
      vertex 47 -19.468 14
      vertex 45 -45 14
      vertex 47 -47 14
    endloop
  endfacet
  facet normal 0 0 1
    outer loop
      vertex 45 -45 14
      vertex 19.468 -47 14
      vertex 47 -47 14
    endloop
  endfacet
  facet normal -0 0 1
    outer loop
      vertex 18.6396 -45 14
      vertex 19.468 -47 14
      vertex 45 -45 14
    endloop
  endfacet
  facet normal 0 0 1
    outer loop
      vertex 0 -63.6396 14
      vertex 19.468 -47 14
      vertex 18.6396 -45 14
    endloop
  endfacet
  facet normal -0 0 1
    outer loop
      vertex 0 -63.6396 14
      vertex 0 -66.468 14
      vertex 19.468 -47 14
    endloop
  endfacet
  facet normal -0 0 1
    outer loop
      vertex -19.468 -47 14
      vertex 0 -63.6396 14
      vertex -18.6396 -45 14
    endloop
  endfacet
  facet normal 0 0 1
    outer loop
      vertex 0 -63.6396 14
      vertex -19.468 -47 14
      vertex 0 -66.468 14
    endloop
  endfacet
  facet normal -0 0 1
    outer loop
      vertex -45 -45 14
      vertex -19.468 -47 14
      vertex -18.6396 -45 14
    endloop
  endfacet
  facet normal 0 0 1
    outer loop
      vertex -45 -45 14
      vertex -47 -47 14
      vertex -19.468 -47 14
    endloop
  endfacet
  facet normal 0 0 1
    outer loop
      vertex -47 -47 14
      vertex -45 -45 14
      vertex -47 -19.468 14
    endloop
  endfacet
  facet normal 0 0 -1
    outer loop
      vertex -47 -19.468 -14
      vertex -66.468 0 -14
      vertex -47 19.468 -14
    endloop
  endfacet
  facet normal 0 0 -1
    outer loop
      vertex 19.468 -47 -14
      vertex 47 -19.468 -14
      vertex 47 -47 -14
    endloop
  endfacet
  facet normal -0 0 -1
    outer loop
      vertex 47 -19.468 -14
      vertex 19.468 -47 -14
      vertex 47 19.468 -14
    endloop
  endfacet
  facet normal 0 0 -1
    outer loop
      vertex 19.468 47 -14
      vertex 47 19.468 -14
      vertex 19.468 -47 -14
    endloop
  endfacet
  facet normal 0 0 -1
    outer loop
      vertex 47 19.468 -14
      vertex 19.468 47 -14
      vertex 47 47 -14
    endloop
  endfacet
  facet normal 0 0 -1
    outer loop
      vertex -19.468 -47 -14
      vertex 19.468 -47 -14
      vertex 0 -66.468 -14
    endloop
  endfacet
  facet normal 0 0 -1
    outer loop
      vertex 19.468 -47 -14
      vertex -19.468 -47 -14
      vertex 19.468 47 -14
    endloop
  endfacet
  facet normal 0 0 -1
    outer loop
      vertex -19.468 47 -14
      vertex 19.468 47 -14
      vertex -19.468 -47 -14
    endloop
  endfacet
  facet normal 0 0 -1
    outer loop
      vertex 19.468 47 -14
      vertex -19.468 47 -14
      vertex 0 66.468 -14
    endloop
  endfacet
  facet normal 0 0 -1
    outer loop
      vertex -47 -19.468 -14
      vertex -19.468 -47 -14
      vertex -47 -47 -14
    endloop
  endfacet
  facet normal 0 0 -1
    outer loop
      vertex -19.468 -47 -14
      vertex -47 -19.468 -14
      vertex -19.468 47 -14
    endloop
  endfacet
  facet normal 0 0 -1
    outer loop
      vertex -47 19.468 -14
      vertex -19.468 47 -14
      vertex -47 -19.468 -14
    endloop
  endfacet
  facet normal -0 0 -1
    outer loop
      vertex -19.468 47 -14
      vertex -47 19.468 -14
      vertex -47 47 -14
    endloop
  endfacet
  facet normal -0 0 -1
    outer loop
      vertex 66.468 0 -14
      vertex 47 -19.468 -14
      vertex 47 19.468 -14
    endloop
  endfacet
  facet normal -1 0 0
    outer loop
      vertex -47 19.468 -14
      vertex -47 47 14
      vertex -47 47 -14
    endloop
  endfacet
  facet normal -1 -0 0
    outer loop
      vertex -47 47 14
      vertex -47 19.468 -14
      vertex -47 19.468 14
    endloop
  endfacet
  facet normal -1 0 0
    outer loop
      vertex -47 -47 -14
      vertex -47 -19.468 14
      vertex -47 -19.468 -14
    endloop
  endfacet
  facet normal -1 -0 0
    outer loop
      vertex -47 -19.468 14
      vertex -47 -47 -14
      vertex -47 -47 14
    endloop
  endfacet
  facet normal 0 1 -0
    outer loop
      vertex -19.468 47 -14
      vertex -47 47 14
      vertex -19.468 47 14
    endloop
  endfacet
  facet normal 0 1 0
    outer loop
      vertex -47 47 14
      vertex -19.468 47 -14
      vertex -47 47 -14
    endloop
  endfacet
  facet normal 0 1 -0
    outer loop
      vertex 47 47 -14
      vertex 19.468 47 14
      vertex 47 47 14
    endloop
  endfacet
  facet normal 0 1 0
    outer loop
      vertex 19.468 47 14
      vertex 47 47 -14
      vertex 19.468 47 -14
    endloop
  endfacet
  facet normal 0 -1 0
    outer loop
      vertex -47 -47 -14
      vertex -19.468 -47 14
      vertex -47 -47 14
    endloop
  endfacet
  facet normal 0 -1 -0
    outer loop
      vertex -19.468 -47 14
      vertex -47 -47 -14
      vertex -19.468 -47 -14
    endloop
  endfacet
  facet normal 0 -1 0
    outer loop
      vertex 19.468 -47 -14
      vertex 47 -47 14
      vertex 19.468 -47 14
    endloop
  endfacet
  facet normal 0 -1 -0
    outer loop
      vertex 47 -47 14
      vertex 19.468 -47 -14
      vertex 47 -47 -14
    endloop
  endfacet
  facet normal -0.707107 -0.707107 0
    outer loop
      vertex -47 -19.468 -14
      vertex -66.468 0 14
      vertex -66.468 0 -14
    endloop
  endfacet
  facet normal -0.707107 -0.707107 0
    outer loop
      vertex -66.468 0 14
      vertex -47 -19.468 -14
      vertex -47 -19.468 14
    endloop
  endfacet
  facet normal -0.707107 -0.707107 0
    outer loop
      vertex -19.468 -47 -14
      vertex 0 -66.468 14
      vertex -19.468 -47 14
    endloop
  endfacet
  facet normal -0.707107 -0.707107 -0
    outer loop
      vertex 0 -66.468 14
      vertex -19.468 -47 -14
      vertex 0 -66.468 -14
    endloop
  endfacet
  facet normal -0.707107 0.707107 0
    outer loop
      vertex -66.468 0 -14
      vertex -47 19.468 14
      vertex -47 19.468 -14
    endloop
  endfacet
  facet normal -0.707107 0.707107 0
    outer loop
      vertex -47 19.468 14
      vertex -66.468 0 -14
      vertex -66.468 0 14
    endloop
  endfacet
  facet normal -0.707107 0.707107 0
    outer loop
      vertex 0 66.468 -14
      vertex -19.468 47 14
      vertex 0 66.468 14
    endloop
  endfacet
  facet normal -0.707107 0.707107 0
    outer loop
      vertex -19.468 47 14
      vertex 0 66.468 -14
      vertex -19.468 47 -14
    endloop
  endfacet
  facet normal 0.707107 -0.707107 0
    outer loop
      vertex 0 -66.468 -14
      vertex 19.468 -47 14
      vertex 0 -66.468 14
    endloop
  endfacet
  facet normal 0.707107 -0.707107 0
    outer loop
      vertex 19.468 -47 14
      vertex 0 -66.468 -14
      vertex 19.468 -47 -14
    endloop
  endfacet
  facet normal 0.707107 -0.707107 0
    outer loop
      vertex 47 -19.468 14
      vertex 66.468 0 -14
      vertex 66.468 0 14
    endloop
  endfacet
  facet normal 0.707107 -0.707107 0
    outer loop
      vertex 66.468 0 -14
      vertex 47 -19.468 14
      vertex 47 -19.468 -14
    endloop
  endfacet
  facet normal 0.707107 0.707107 -0
    outer loop
      vertex 19.468 47 -14
      vertex 0 66.468 14
      vertex 19.468 47 14
    endloop
  endfacet
  facet normal 0.707107 0.707107 0
    outer loop
      vertex 0 66.468 14
      vertex 19.468 47 -14
      vertex 0 66.468 -14
    endloop
  endfacet
  facet normal 0.707107 0.707107 0
    outer loop
      vertex 66.468 0 14
      vertex 47 19.468 -14
      vertex 47 19.468 14
    endloop
  endfacet
  facet normal 0.707107 0.707107 0
    outer loop
      vertex 47 19.468 -14
      vertex 66.468 0 14
      vertex 66.468 0 -14
    endloop
  endfacet
  facet normal -1 0 0
    outer loop
      vertex 45 18.6396 -10
      vertex 45 45 14
      vertex 45 45 -10
    endloop
  endfacet
  facet normal -1 -0 0
    outer loop
      vertex 45 45 14
      vertex 45 18.6396 -10
      vertex 45 18.6396 14
    endloop
  endfacet
  facet normal -1 0 0
    outer loop
      vertex 45 -45 -10
      vertex 45 -18.6396 14
      vertex 45 -18.6396 -10
    endloop
  endfacet
  facet normal -1 -0 0
    outer loop
      vertex 45 -18.6396 14
      vertex 45 -45 -10
      vertex 45 -45 14
    endloop
  endfacet
  facet normal 0 0 1
    outer loop
      vertex -45 18.6396 -10
      vertex -63.6396 0 -10
      vertex -45 -18.6396 -10
    endloop
  endfacet
  facet normal -0 0 1
    outer loop
      vertex 18.6396 45 -10
      vertex 45 18.6396 -10
      vertex 45 45 -10
    endloop
  endfacet
  facet normal 0 0 1
    outer loop
      vertex 45 18.6396 -10
      vertex 18.6396 45 -10
      vertex 45 -18.6396 -10
    endloop
  endfacet
  facet normal 0 0 1
    outer loop
      vertex 18.6396 -45 -10
      vertex 45 -18.6396 -10
      vertex 18.6396 45 -10
    endloop
  endfacet
  facet normal 0 0 1
    outer loop
      vertex 45 -18.6396 -10
      vertex 18.6396 -45 -10
      vertex 45 -45 -10
    endloop
  endfacet
  facet normal 0 0 1
    outer loop
      vertex -18.6396 45 -10
      vertex 18.6396 45 -10
      vertex 0 63.6396 -10
    endloop
  endfacet
  facet normal 0 0 1
    outer loop
      vertex 18.6396 45 -10
      vertex -18.6396 45 -10
      vertex 18.6396 -45 -10
    endloop
  endfacet
  facet normal 0 0 1
    outer loop
      vertex -18.6396 -45 -10
      vertex 18.6396 -45 -10
      vertex -18.6396 45 -10
    endloop
  endfacet
  facet normal 0 0 1
    outer loop
      vertex 18.6396 -45 -10
      vertex -18.6396 -45 -10
      vertex 0 -63.6396 -10
    endloop
  endfacet
  facet normal 0 0 1
    outer loop
      vertex -45 18.6396 -10
      vertex -18.6396 45 -10
      vertex -45 45 -10
    endloop
  endfacet
  facet normal 0 0 1
    outer loop
      vertex -18.6396 45 -10
      vertex -45 18.6396 -10
      vertex -18.6396 -45 -10
    endloop
  endfacet
  facet normal -0 0 1
    outer loop
      vertex -45 -18.6396 -10
      vertex -18.6396 -45 -10
      vertex -45 18.6396 -10
    endloop
  endfacet
  facet normal 0 0 1
    outer loop
      vertex -18.6396 -45 -10
      vertex -45 -18.6396 -10
      vertex -45 -45 -10
    endloop
  endfacet
  facet normal 0 0 1
    outer loop
      vertex 63.6396 0 -10
      vertex 45 18.6396 -10
      vertex 45 -18.6396 -10
    endloop
  endfacet
  facet normal 1 -0 0
    outer loop
      vertex -45 18.6396 14
      vertex -45 45 -10
      vertex -45 45 14
    endloop
  endfacet
  facet normal 1 0 0
    outer loop
      vertex -45 45 -10
      vertex -45 18.6396 14
      vertex -45 18.6396 -10
    endloop
  endfacet
  facet normal 1 -0 0
    outer loop
      vertex -45 -45 14
      vertex -45 -18.6396 -10
      vertex -45 -18.6396 14
    endloop
  endfacet
  facet normal 1 0 0
    outer loop
      vertex -45 -18.6396 -10
      vertex -45 -45 14
      vertex -45 -45 -10
    endloop
  endfacet
  facet normal 0 -1 0
    outer loop
      vertex -45 45 -10
      vertex -18.6396 45 14
      vertex -45 45 14
    endloop
  endfacet
  facet normal 0 -1 -0
    outer loop
      vertex -18.6396 45 14
      vertex -45 45 -10
      vertex -18.6396 45 -10
    endloop
  endfacet
  facet normal 0 -1 0
    outer loop
      vertex 18.6396 45 -10
      vertex 45 45 14
      vertex 18.6396 45 14
    endloop
  endfacet
  facet normal 0 -1 -0
    outer loop
      vertex 45 45 14
      vertex 18.6396 45 -10
      vertex 45 45 -10
    endloop
  endfacet
  facet normal 0 1 -0
    outer loop
      vertex -18.6396 -45 -10
      vertex -45 -45 14
      vertex -18.6396 -45 14
    endloop
  endfacet
  facet normal 0 1 0
    outer loop
      vertex -45 -45 14
      vertex -18.6396 -45 -10
      vertex -45 -45 -10
    endloop
  endfacet
  facet normal 0 1 -0
    outer loop
      vertex 45 -45 -10
      vertex 18.6396 -45 14
      vertex 45 -45 14
    endloop
  endfacet
  facet normal 0 1 0
    outer loop
      vertex 18.6396 -45 14
      vertex 45 -45 -10
      vertex 18.6396 -45 -10
    endloop
  endfacet
  facet normal 0.707107 0.707107 0
    outer loop
      vertex -45 -18.6396 14
      vertex -63.6396 0 -10
      vertex -63.6396 0 14
    endloop
  endfacet
  facet normal 0.707107 0.707107 0
    outer loop
      vertex -63.6396 0 -10
      vertex -45 -18.6396 14
      vertex -45 -18.6396 -10
    endloop
  endfacet
  facet normal 0.707107 0.707107 0
    outer loop
      vertex 0 -63.6396 14
      vertex -18.6396 -45 -10
      vertex -18.6396 -45 14
    endloop
  endfacet
  facet normal 0.707107 0.707107 0
    outer loop
      vertex -18.6396 -45 -10
      vertex 0 -63.6396 14
      vertex 0 -63.6396 -10
    endloop
  endfacet
  facet normal 0.707107 -0.707107 0
    outer loop
      vertex -63.6396 0 14
      vertex -45 18.6396 -10
      vertex -45 18.6396 14
    endloop
  endfacet
  facet normal 0.707107 -0.707107 0
    outer loop
      vertex -45 18.6396 -10
      vertex -63.6396 0 14
      vertex -63.6396 0 -10
    endloop
  endfacet
  facet normal 0.707107 -0.707107 0
    outer loop
      vertex -18.6396 45 14
      vertex 0 63.6396 -10
      vertex 0 63.6396 14
    endloop
  endfacet
  facet normal 0.707107 -0.707107 0
    outer loop
      vertex 0 63.6396 -10
      vertex -18.6396 45 14
      vertex -18.6396 45 -10
    endloop
  endfacet
  facet normal -0.707107 0.707107 0
    outer loop
      vertex 0 -63.6396 -10
      vertex 18.6396 -45 14
      vertex 18.6396 -45 -10
    endloop
  endfacet
  facet normal -0.707107 0.707107 0
    outer loop
      vertex 18.6396 -45 14
      vertex 0 -63.6396 -10
      vertex 0 -63.6396 14
    endloop
  endfacet
  facet normal -0.707107 0.707107 0
    outer loop
      vertex 45 -18.6396 -10
      vertex 63.6396 0 14
      vertex 63.6396 0 -10
    endloop
  endfacet
  facet normal -0.707107 0.707107 0
    outer loop
      vertex 63.6396 0 14
      vertex 45 -18.6396 -10
      vertex 45 -18.6396 14
    endloop
  endfacet
  facet normal -0.707107 -0.707107 0
    outer loop
      vertex 18.6396 45 -10
      vertex 0 63.6396 14
      vertex 0 63.6396 -10
    endloop
  endfacet
  facet normal -0.707107 -0.707107 0
    outer loop
      vertex 0 63.6396 14
      vertex 18.6396 45 -10
      vertex 18.6396 45 14
    endloop
  endfacet
  facet normal -0.707107 -0.707107 0
    outer loop
      vertex 63.6396 0 -10
      vertex 45 18.6396 14
      vertex 45 18.6396 -10
    endloop
  endfacet
  facet normal -0.707107 -0.707107 0
    outer loop
      vertex 45 18.6396 14
      vertex 63.6396 0 -10
      vertex 63.6396 0 14
    endloop
  endfacet
endsolid OpenSCAD_Model
